<svg xmlns="http://www.w3.org/2000/svg" xmlns:xlink="http://www.w3.org/1999/xlink" xmlns:sketch="http://www.bohemiancoding.com/sketch/ns" viewBox="0 0 100 100" version="1.1" x="0px" y="0px"><title>3 copy 2</title><desc>Created with Sketch.</desc><g stroke="none" stroke-width="1" fill="none" fill-rule="evenodd" sketch:type="MSPage"><path d="M86.829024,43.1531067 C84.1140164,56.7141446 74.4109892,67.933176 61.0759519,71.8321869 C62.531956,65.5861694 62.2709553,59.0831513 59.6229479,52.8181337 C59.5019475,52.5341329 59.3639471,52.2601322 59.2369468,51.9801314 C59.2419468,51.9711314 59.2469468,51.9621313 59.2519468,51.9531313 C62.9949573,45.8331142 67.879971,40.9201005 72.5669841,35.5900856 C78.2139999,29.1710676 83.0390134,22.0770478 86.9100242,14.4660265 C88.1820277,23.9780531 88.7280293,33.6700802 86.829024,43.1531067 M56.7339398,47.3321184 C55.7569371,45.774114 54.6859341,44.2781099 53.5349308,42.8351058 C63.6469591,30.3460709 76.3489947,22.2130481 84.7770182,13.0830226 C78.6730012,25.4120571 67.7439706,34.4160823 58.8139456,44.8021113 C58.1019436,45.6301136 57.4089417,46.474116 56.7339398,47.3321184 M55.9649376,76.3291995 C55.9089375,76.869201 55.8519373,77.3242023 55.8039372,77.6812033 C54.0289322,69.34918 49.1169185,55.6141416 35.5148804,42.2831043 C34.985879,41.7641028 34.1608767,42.4581048 34.5918779,43.0601064 C40.1138933,50.777128 49.4779195,65.9471705 51.5199252,82.2792161 C50.2199216,80.8992123 47.5949142,79.0802072 42.2498993,77.6102031 C32.2498713,74.8601954 23.545847,67.5021748 18.7728336,59.8061533 C15.323824,54.0411372 13.9878202,47.1091178 13.3688185,40.4730992 C12.8728171,35.1540843 12.9588174,29.7700693 13.5988192,24.4680544 C13.8188198,22.6370493 14.8778227,15.5140294 15.4548243,12.6680214 C15.5508246,12.1960201 16.1508263,12.0480197 16.4558271,12.4210208 C25.5668526,23.5640519 40.6028947,33.3530793 51.4629251,49.0991233 C53.3449303,51.827131 54.7909344,54.8521394 55.6479368,58.0581484 C57.2339412,63.995165 57.171941,70.3171827 55.9649376,76.3291995 M91.7910378,29.7320692 C91.7160376,24.1450535 90.6380346,5.3220009 88.3160281,5.23600066 C87.0200245,5.18900053 85.1110192,7.33400653 84.2350167,8.0760086 C81.7470097,10.1850145 79.346003,12.4070207 76.9709964,14.642027 C68.2829721,22.8220498 58.0199434,29.9420698 50.1899215,38.984095 C45.7029089,34.1860816 40.5598946,29.8940696 35.8078813,25.5920576 C31.3238687,21.5330462 15.9348257,5 13.91282,5 C11.4358131,5 9.55180783,25.008056 9.252807,30.9560726 C8.77080565,40.5800995 8.55980506,50.3641269 12.6488165,59.330152 C18.196832,71.496186 29.290863,79.3292079 42.0658988,82.4462166 C43.6289031,82.8282177 45.2329076,83.1142185 46.798912,83.5142196 C48.6979173,84.0832212 52.2719273,85.6882257 52.2719273,89.732237 C52.3469275,92.8822458 52.3209275,94.7262509 52.7929288,94.9402515 C53.8479317,95.4202529 57.3039414,92.9252459 57.1119408,90.4292389 C57.0689407,89.8652374 56.81894,84.6062226 56.6389395,82.8702178 C57.7679427,80.9112123 58.7319454,78.8842066 59.5279476,76.8152009 C71.4989811,74.2831938 82.0530106,67.3471744 87.6310262,56.2181432 C91.7730378,47.9521201 91.9120382,38.7710945 91.7910378,29.7320692" fill="#fff" sketch:type="MSShapeGroup"/></g></svg>